<?xml version="1.0" encoding="UTF-8"?>
<svg width="16px" height="16px" viewBox="0 0 16 16" version="1.1" xmlns="http://www.w3.org/2000/svg" xmlns:xlink="http://www.w3.org/1999/xlink">
    <!-- Generator: sketchtool 55.2 (78181) - https://sketchapp.com -->
    <title>D3311DA3-4D7E-4AE9-9313-63E146BC67D2</title>
    <desc>Created with sketchtool.</desc>
    <g id="GUI" stroke="none" stroke-width="1" fill="none" fill-rule="evenodd">
        <g id="UI-Elemente" transform="translate(-108.000000, -1781.000000)">
            <g id="apps" transform="translate(104.000000, 1777.000000)">
                <path d="M4,8 L8,8 L8,4 L4,4 L4,8 L4,8 Z M10,20 L14,20 L14,16 L10,16 L10,20 L10,20 Z M4,20 L8,20 L8,16 L4,16 L4,20 L4,20 Z M4,14 L8,14 L8,10 L4,10 L4,14 L4,14 Z M10,14 L14,14 L14,10 L10,10 L10,14 L10,14 Z M16,4 L16,8 L20,8 L20,4 L16,4 L16,4 Z M10,8 L14,8 L14,4 L10,4 L10,8 L10,8 Z M16,14 L20,14 L20,10 L16,10 L16,14 L16,14 Z M16,20 L20,20 L20,16 L16,16 L16,20 L16,20 Z" id="Shape" fill="#545458"></path>
                <rect id="bounds" x="0" y="0" width="24" height="24"></rect>
            </g>
        </g>
    </g>
</svg>