<?xml version="1.0" encoding="UTF-8"?>
<svg width="18px" height="20px" viewBox="0 0 18 20" version="1.1" xmlns="http://www.w3.org/2000/svg" xmlns:xlink="http://www.w3.org/1999/xlink">
    <!-- Generator: Sketch 56.3 (81716) - https://sketch.com -->
    <title>atoms/icons/ic_today_light_gray</title>
    <desc>Created with Sketch.</desc>
    <g id="Symbols" stroke="none" stroke-width="1" fill="none" fill-rule="evenodd">
        <g id="cells/themen/headline-icon+info1-icon+info2-2icons_320" transform="translate(-87.000000, -49.000000)" fill="#545458" fill-rule="nonzero">
            <g id="Group" transform="translate(16.000000, 48.000000)">
                <g id="calendar/calendar_next" transform="translate(68.000000, 0.000000)">
                    <path d="M19,3 C20.1,3 21,3.9 21,5 L21,19 C21,20.1 20.1,21 19,21 L5,21 C3.89,21 3,20.1 3,19 L3.01,5 C3.01,3.9 3.89,3 5,3 L6,3 L6,1 L8,1 L8,3 L16,3 L16,1 L18,1 L18,3 L19,3 Z M19,19 L19,8 L5,8 L5,19 L19,19 Z M13.0857864,14.5 L7,14.5 L7,12.5 L13.0857864,12.5 L11.2928932,10.7071068 L12.7071068,9.29289322 L16.9142136,13.5 L12.7071068,17.7071068 L11.2928932,16.2928932 L13.0857864,14.5 Z" id="Combined-Shape"></path>
                </g>
            </g>
        </g>
    </g>
</svg>