<?xml version="1.0" encoding="UTF-8"?>
<svg width="18px" height="18px" viewBox="0 0 18 18" version="1.1" xmlns="http://www.w3.org/2000/svg" xmlns:xlink="http://www.w3.org/1999/xlink">
    <!-- Generator: sketchtool 55.2 (78181) - https://sketchapp.com -->
    <title>E0889FA3-7144-4C8A-AF21-5DF29F92292E</title>
    <desc>Created with sketchtool.</desc>
    <g id="Symbols" stroke="none" stroke-width="1" fill="none" fill-rule="evenodd">
        <g id="cells/dokumente_header" transform="translate(-19.000000, -19.000000)" fill="#6A6A6A" fill-rule="nonzero">
            <g id="navigation/ic_chevron_right_24px" transform="translate(16.000000, 16.000000)">
                <path d="M11.43,10.94 C11.2,11.68 10.87,12.47 10.42,13.34 C10.22,13.72 10,14.08 9.92,14.38 L10.03,14.34 L10.03,14.34 C11.3,13.85 12.5,13.57 13.37,13.41 C13.22,13.31 13.08,13.2 12.96,13.09 C12.36,12.58 11.84,11.84 11.43,10.94 L11.43,10.94 Z M17.91,14.75 C17.74,14.94 17.44,15.05 17,15.05 C16.24,15.05 15,14.82 14,14.31 C12.28,14.5 11,14.73 9.97,15.06 C9.92,15.08 9.86,15.1 9.79,15.13 C8.55,17.25 7.63,18.2 6.82,18.2 C6.66,18.2 6.5,18.16 6.38,18.09 L5.9,17.78 L5.87,17.73 C5.8,17.55 5.78,17.38 5.82,17.19 C5.93,16.66 6.5,15.82 7.7,15.07 C7.89,14.93 8.19,14.77 8.59,14.58 C8.89,14.06 9.21,13.45 9.55,12.78 C10.06,11.75 10.38,10.73 10.63,9.85 L10.63,9.84 C10.26,8.63 10.04,7.9 10.41,6.57 C10.5,6.19 10.83,5.8 11.2,5.8 L11.44,5.8 C11.67,5.8 11.89,5.88 12.05,6.04 C12.71,6.7 12.4,8.31 12.07,9.64 C12.05,9.7 12.04,9.75 12.03,9.78 C12.43,10.91 13,11.82 13.63,12.34 C13.89,12.54 14.18,12.74 14.5,12.92 C14.95,12.87 15.38,12.85 15.79,12.85 C17.03,12.85 17.78,13.07 18.07,13.54 C18.17,13.7 18.22,13.89 18.19,14.09 C18.18,14.34 18.09,14.57 17.91,14.75 L17.91,14.75 Z M19,3 L5,3 C3.89,3 3,3.89 3,5 L3,19 C3,20.1045695 3.8954305,21 5,21 L19,21 C20.1045695,21 21,20.1045695 21,19 L21,5 C21,3.89 20.1,3 19,3 L19,3 Z M17.5,14.04 C17.4,13.94 17,13.69 15.6,13.69 C15.53,13.69 15.46,13.69 15.37,13.79 C16.1,14.11 16.81,14.3 17.27,14.3 C17.34,14.3 17.4,14.29 17.46,14.28 L17.5,14.28 C17.55,14.26 17.58,14.25 17.59,14.15 C17.57,14.12 17.55,14.08 17.5,14.04 L17.5,14.04 Z M8.33,15.5 C8.12,15.62 7.95,15.73 7.85,15.81 C7.14,16.46 6.69,17.12 6.64,17.5 C7.09,17.35 7.68,16.69 8.33,15.5 L8.33,15.5 Z M11.35,8.59 L11.4,8.55 C11.47,8.23 11.5,7.95 11.56,7.73 L11.59,7.57 C11.69,7 11.67,6.71 11.5,6.47 L11.35,6.42 C11.33,6.45 11.3,6.5 11.28,6.54 C11.11,6.96 11.12,7.69 11.35,8.59 Z" id="Shape"></path>
            </g>
        </g>
    </g>
</svg>