<?xml version="1.0" encoding="UTF-8"?>
<svg width="20px" height="20px" viewBox="0 0 20 20" version="1.1" xmlns="http://www.w3.org/2000/svg" xmlns:xlink="http://www.w3.org/1999/xlink">
    <!-- Generator: Sketch 57 (83077) - https://sketch.com -->
    <title># main/ic-fax</title>
    <desc>Created with Sketch.</desc>
    <g id="Symbols" stroke="none" stroke-width="1" fill="none" fill-rule="evenodd">
        <g id="cells/person/kontakt_320" transform="translate(-18.000000, -90.000000)" fill="#6A6A6A" fill-rule="nonzero">
            <g id="Group-3" transform="translate(16.000000, 88.000000)">
                <g id="communication/telefax">
                    <path d="M19,9 C20.6007143,9 21.9038776,10.2459949 21.9949189,11.8234138 L22,12 L22,18 L18,18 L18,22 L6,22 L6,18 L2,18 L2,12 C2,10.3992857 3.2459949,9.09612245 4.82341381,9.00508109 L5,9 L19,9 Z M16,13 L8,13 L8,20 L16,20 L16,13 Z M15,18 L15,19 L9,19 L9,18 L15,18 Z M15,16 L15,17 L9,17 L9,16 L15,16 Z M15,14 L15,15 L9,15 L9,14 L15,14 Z M19,11 C18.45,11 18,11.45 18,12 C18,12.55 18.45,13 19,13 C19.55,13 20,12.55 20,12 C20,11.45 19.55,11 19,11 Z M12,2 C15.0266667,2 17.7733333,3.18666667 19.8066667,5.11333333 C19.9266667,5.23333333 20,5.4 20,5.58666667 C20,5.77333333 19.9266667,5.94 19.8066667,6.06 L18.1533333,7.71333333 C18.0333333,7.83333333 17.8666667,7.90666667 17.68,7.90666667 C17.5,7.90666667 17.3333333,7.83333333 17.2133333,7.72 C16.6866667,7.22666667 16.0866667,6.81333333 15.4333333,6.48666667 C15.2133333,6.38 15.06,6.15333333 15.06,5.88666667 L15.06,3.82 C14.1,3.5 13.0666667,3.33333333 12,3.33333333 C10.9333333,3.33333333 9.9,3.5 8.93333333,3.81333333 L8.93333333,5.88 C8.93333333,6.14 8.78,6.37333333 8.56,6.48 C7.90666667,6.80666667 7.31333333,7.22666667 6.78666667,7.71333333 C6.66666667,7.83333333 6.5,7.9 6.32,7.9 C6.13333333,7.9 5.96666667,7.82666667 5.84666667,7.70666667 L4.19333333,6.05333333 C4.07333333,5.94 4,5.77333333 4,5.58666667 C4,5.4 4.07333333,5.23333333 4.19333333,5.11333333 C6.22666667,3.18666667 8.97333333,2 12,2 Z" id="Combined-Shape"></path>
                </g>
            </g>
        </g>
    </g>
</svg>