<?xml version="1.0" encoding="UTF-8"?>
<svg width="14px" height="14px" viewBox="0 0 14 14" version="1.1" xmlns="http://www.w3.org/2000/svg" xmlns:xlink="http://www.w3.org/1999/xlink">
    <!-- Generator: sketchtool 55.2 (78181) - https://sketchapp.com -->
    <title>9437AEC4-61AB-4429-8B9E-D5728D4920AB</title>
    <desc>Created with sketchtool.</desc>
    <g id="GUI" stroke="none" stroke-width="1" fill="none" fill-rule="evenodd">
        <g id="UI-Elemente" transform="translate(-729.000000, -1782.000000)">
            <g id="fullscreen-exit" transform="translate(724.000000, 1777.000000)">
                <rect id="bounds" x="0" y="0" width="24" height="24"></rect>
                <path d="M5,16 L8,16 L8,19 L10,19 L10,14 L5,14 L5,16 L5,16 Z M8,8 L5,8 L5,10 L10,10 L10,5 L8,5 L8,8 L8,8 Z M14,19 L16,19 L16,16 L19,16 L19,14 L14,14 L14,19 L14,19 Z M16,8 L16,5 L14,5 L14,10 L19,10 L19,8 L16,8 L16,8 Z" id="Shape" fill="#545458"></path>
            </g>
        </g>
    </g>
</svg>