<?xml version="1.0" encoding="UTF-8"?>
<svg width="14px" height="14px" viewBox="0 0 14 14" version="1.1" xmlns="http://www.w3.org/2000/svg" xmlns:xlink="http://www.w3.org/1999/xlink">
    <!-- Generator: sketchtool 55.2 (78181) - https://sketchapp.com -->
    <title>D4F4567A-981A-4834-B7D7-AE606D9A07B8</title>
    <desc>Created with sketchtool.</desc>
    <g id="GUI" stroke="none" stroke-width="1" fill="none" fill-rule="evenodd">
        <g id="UI-Elemente" transform="translate(-677.000000, -1782.000000)">
            <g id="fullscreen" transform="translate(672.000000, 1777.000000)">
                <rect id="bounds" x="0" y="0" width="24" height="24"></rect>
                <path d="M7,14 L5,14 L5,19 L10,19 L10,17 L7,17 L7,14 L7,14 Z M5,10 L7,10 L7,7 L10,7 L10,5 L5,5 L5,10 L5,10 Z M17,17 L14,17 L14,19 L19,19 L19,14 L17,14 L17,17 L17,17 Z M14,5 L14,7 L17,7 L17,10 L19,10 L19,5 L14,5 L14,5 Z" id="Shape" fill="#545458"></path>
            </g>
        </g>
    </g>
</svg>