<?xml version="1.0" encoding="UTF-8"?>
<svg width="14px" height="20px" viewBox="0 0 14 20" version="1.1" xmlns="http://www.w3.org/2000/svg" xmlns:xlink="http://www.w3.org/1999/xlink">
    <!-- Generator: Sketch 56 (81588) - https://sketch.com -->
    <title>atoms/icons/ic_tick</title>
    <desc>Created with Sketch.</desc>
    <g id="Symbols" stroke="none" stroke-width="1" fill="none" fill-rule="evenodd">
        <g id="cells/kalender/future_long-headline" transform="translate(-21.000000, -106.000000)" fill="#545458" fill-rule="nonzero">
            <g id="Group" transform="translate(16.000000, 72.000000)">
                <g id="icons/display/place" transform="translate(0.000000, 32.000000)">
                    <path d="M12,2 C15.87,2 19,5.13 19,9 C19,14.25 12,22 12,22 C12,22 5,14.25 5,9 C5,5.13 8.13,2 12,2 Z M12,11.5 C13.38,11.5 14.5,10.38 14.5,9 C14.5,7.62 13.38,6.5 12,6.5 C10.62,6.5 9.5,7.62 9.5,9 C9.5,10.38 10.62,11.5 12,11.5 Z" id="Combined-Shape"></path>
                </g>
            </g>
        </g>
    </g>
</svg>