<?xml version="1.0" encoding="UTF-8"?>
<svg width="4px" height="16px" viewBox="0 0 4 16" version="1.1" xmlns="http://www.w3.org/2000/svg" xmlns:xlink="http://www.w3.org/1999/xlink">
    <!-- Generator: sketchtool 55.2 (78181) - https://sketchapp.com -->
    <title>188EB8E4-D417-4DCD-8799-97616A28C770</title>
    <desc>Created with sketchtool.</desc>
    <g id="GUI" stroke="none" stroke-width="1" fill="none" fill-rule="evenodd">
        <g id="UI-Elemente" transform="translate(-838.000000, -1781.000000)">
            <g id="more" transform="translate(834.000000, 1777.000000)">
                <rect id="bounds" x="0" y="0" width="12" height="24"></rect>
                <path d="M6,8 C7.1,8 8,7.1 8,6 C8,4.9 7.1,4 6,4 C4.9,4 4,4.9 4,6 C4,7.1 4.9,8 6,8 L6,8 Z M6,10 C4.9,10 4,10.9 4,12 C4,13.1 4.9,14 6,14 C7.1,14 8,13.1 8,12 C8,10.9 7.1,10 6,10 L6,10 Z M6,16 C4.9,16 4,16.9 4,18 C4,19.1 4.9,20 6,20 C7.1,20 8,19.1 8,18 C8,16.9 7.1,16 6,16 L6,16 Z" id="Shape" fill="#545458"></path>
            </g>
        </g>
    </g>
</svg>