<?xml version="1.0" encoding="UTF-8"?>
<svg width="16px" height="16px" viewBox="0 0 16 16" version="1.1" xmlns="http://www.w3.org/2000/svg" xmlns:xlink="http://www.w3.org/1999/xlink">
    <!-- Generator: sketchtool 55.2 (78181) - https://sketchapp.com -->
    <title>7E8CCB42-A857-4C0D-99E1-FD295FF87F24</title>
    <desc>Created with sketchtool.</desc>
    <g id="GUI" stroke="none" stroke-width="1" fill="none" fill-rule="evenodd">
        <g id="UI-Elemente" transform="translate(-884.000000, -1781.000000)">
            <g id="refresh" transform="translate(880.000000, 1777.000000)">
                <path d="M12,4 C7.6,4 4,7.6 4,12 C4,16.4 7.6,20 12,20 C15.7,20 18.8,17.4 20,14 L18,14 C16.8,16.3 14.6,18 12,18 C8.7,18 6,15.3 6,12 C6,8.7 8.7,6 12,6 C13.7,6 15.1,6.7 16,8 L13,11 L20,11 L20,4 L18,6 C16.2,5 14.2,4 12,4 Z" id="Shape" fill="#545458"></path>
                <rect id="bounds" x="0" y="0" width="24" height="24"></rect>
            </g>
        </g>
    </g>
</svg>