<svg xmlns="http://www.w3.org/2000/svg" viewBox="0 0 100 69" width="100" height="69">
  <g id="Layer">
    <path id="Layer" d="M24 56.96V57h-244v-4H7v-.04h28.66L45.13.04l8.2 37.26L61.54.04l9.47 52.92H100v4H67.66l-6.53-36.47-7.8 35.42-7.79-35.42-6.53 36.47H24z" fill="#ed1c24"/>
    <path id="Layer" d="M5 62.93h-225v-4H5c6.98 0 12.05.98 18.31 3.14.56.2 2.51.88 2.39.84.92.33 1.6.56 2.26.76 2.85.91 5.1 1.33 7.64 1.33 5.96 0 7.83-3 10.12-13.23.13-.59.19-.88.26-1.19.16-.72.3-1.3.43-1.86 2.45-10.18 7.27-16.46 13.81-18.98 5.31-2.04 11.39-1.39 16.71 1.18 7.69 3.72 12.17 2.58 14.37-3.6 2.66-7.51 5.09-10.39 8.7-10.39v4c-1.39 0-2.78 1.64-4.93 7.72-3.09 8.71-10.24 10.53-19.88 5.88-4.39-2.13-9.35-2.66-13.53-1.05-5.22 2-9.2 7.19-11.36 16.18-.03.15-.07.3-.11.45-.03.15-.07.3-.1.45-.04.15-.07.3-.1.45-.04.15-.07.3-.11.45-.02.1-.04.2-.06.29-.02.1-.05.2-.07.3-.02.1-.04.2-.06.29-.03.1-.05.2-.07.3-1.28 5.75-2.06 8.29-3.67 10.86-2.24 3.6-5.61 5.5-10.35 5.5-3 0-5.64-.49-8.85-1.51-.71-.23-1.42-.47-2.37-.8.1.03-1.83-.65-2.38-.83-5.87-2.03-10.51-2.93-17-2.93z" fill="#9acaeb"/>
  </g>
</svg>
