<?xml version="1.0" encoding="UTF-8"?>
<svg width="47px" height="54px" viewBox="0 0 47 54" version="1.1" xmlns="http://www.w3.org/2000/svg" xmlns:xlink="http://www.w3.org/1999/xlink">
    <!-- Generator: Sketch 58 (84663) - https://sketch.com -->
    <title>Group 4</title>
    <desc>Created with Sketch.</desc>
    <defs>
        <path d="M12,0 C18.627417,0 24,5.372583 24,12 C24,17.5474634 20,24.2141301 12,32 C4,24.2141301 0,17.5474634 0,12 C0,5.372583 5.372583,0 12,0 Z" id="path-1"></path>
        <filter x="-79.2%" y="-53.1%" width="258.3%" height="218.8%" filterUnits="objectBoundingBox" id="filter-2">
            <feOffset dx="0" dy="2" in="SourceAlpha" result="shadowOffsetOuter1"></feOffset>
            <feGaussianBlur stdDeviation="6" in="shadowOffsetOuter1" result="shadowBlurOuter1"></feGaussianBlur>
            <feColorMatrix values="0 0 0 0 0   0 0 0 0 0   0 0 0 0 0  0 0 0 0.32 0" type="matrix" in="shadowBlurOuter1"></feColorMatrix>
        </filter>
    </defs>
    <g id="Karte-(WIP)" stroke="none" stroke-width="1" fill="none" fill-rule="evenodd">
        <g id="Karte-04_1024" transform="translate(-554.000000, -409.000000)">
            <g id="KARTE" transform="translate(320.000000, 112.000000)">
                <g id="Group-6" transform="translate(63.000000, 44.760166)">
                    <g id="Group-4" transform="translate(170.000000, 252.739834)">
                        <g id="buttons/MapPins/MapPin-active" transform="translate(0.923077, 0.640000)">
                            <g id="Button/Pin/Karte-active" transform="translate(12.000000, 8.000000)">
                                <g id="Path">
                                    <use fill="black" fill-opacity="1" filter="url(#filter-2)" xlink:href="#path-1"></use>
                                    <use fill="#E1131B" fill-rule="evenodd" xlink:href="#path-1"></use>
                                </g>
                                <path d="M12,18 C15.0375661,18 17.5,15.5375661 17.5,12.5 C17.5,9.46243388 15.0375661,7 12,7 C8.96243388,7 6.5,9.46243388 6.5,12.5 C6.5,15.5375661 8.96243388,18 12,18 Z" id="Oval" fill="#FFFFFF" fill-rule="nonzero"></path>
                            </g>
                        </g>
                    </g>
                </g>
            </g>
        </g>
    </g>
</svg>