<svg width="48" height="55" viewBox="0 0 48 55" xmlns="http://www.w3.org/2000/svg" xmlns:xlink="http://www.w3.org/1999/xlink">
    <defs>
        <path d="M20.4706 20.5l.0147.0147L12 32 3.5147 20.5147l.0147-.0147C1.3492 18.3273 0 15.3212 0 12 0 5.3726 5.3726 0 12 0s12 5.3726 12 12c0 3.3212-1.3492 6.3273-3.5294 8.5z" id="b"/>
        <filter x="-79.2%" y="-53.1%" width="258.3%" height="218.8%" filterUnits="objectBoundingBox" id="a">
            <feOffset dy="2" in="SourceAlpha" result="shadowOffsetOuter1"/>
            <feGaussianBlur stdDeviation="6" in="shadowOffsetOuter1" result="shadowBlurOuter1"/>
            <feColorMatrix values="0 0 0 0 0 0 0 0 0 0 0 0 0 0 0 0 0 0 0.32 0" in="shadowBlurOuter1"/>
        </filter>
    </defs>
    <g fill="none" fill-rule="evenodd">
        <path d="M-110-287h320v568h-320z"/>
        <g transform="translate(12 10)">
            <use fill="#000" filter="url(#a)" xlink:href="#b"/>
            <use fill="#3485FF" xlink:href="#b"/>
        </g>
        <path d="M24 28c3.0376 0 5.5-2.4624 5.5-5.5S27.0376 17 24 17s-5.5 2.4624-5.5 5.5S20.9624 28 24 28z" fill="#FFF" fill-rule="nonzero"/>
    </g>
</svg>