<?xml version="1.0" encoding="UTF-8"?>
<svg width="41px" height="43px" viewBox="0 0 41 43" version="1.1" xmlns="http://www.w3.org/2000/svg" xmlns:xlink="http://www.w3.org/1999/xlink">
    <!-- Generator: Sketch 56.3 (81716) - https://sketch.com -->
    <title>ic-pdf-many</title>
    <desc>Created with Sketch.</desc>
    <g id="Symbols" stroke="none" stroke-width="1" fill="none" fill-rule="evenodd">
        <g id="cells/dokumente/asset-headline-info-icon_688" transform="translate(-4.000000, -16.000000)">
            <g id="assets/files_all" transform="translate(0.000000, 16.000000)">
                <g id="Group-4" transform="translate(4.500000, 1.500000)">
                    <g id="Group-2" transform="translate(17.181818, 0.000000)">
                        <g id="Group-3">
                            <g id="Group" transform="translate(0.307692, 0.000000)">
                                <path d="M1.92307692,-0.5 L14.6686452,-0.5 L22.3461538,7.1775086 L22.3461538,28.5384615 C22.3461538,29.3668887 21.674581,30.0384615 20.8461538,30.0384615 L1.92307692,30.0384615 C1.0946498,30.0384615 0.423076923,29.3668887 0.423076923,28.5384615 L0.423076923,1 C0.423076923,0.171572875 1.0946498,-0.5 1.92307692,-0.5 Z" id="Rectangle-11" stroke="#CFD0D1" fill="#FFFFFF" stroke-linecap="round" stroke-linejoin="round"></path>
                                <polygon id="schatten" fill="#CFD0D1" points="16.9230769 7.38461538 21.8461538 7.38461538 21.8461538 12.3076923"></polygon>
                                <path d="M14.4615385,-9.09494702e-13 L21.8461538,7.38461538 L15.4615385,7.38461538 C14.9092537,7.38461538 14.4615385,6.93690013 14.4615385,6.38461538 L14.4615385,-9.09494702e-13 Z" id="ecke" fill="#E5E5E5"></path>
                            </g>
                        </g>
                    </g>
                    <g id="Group-2" transform="translate(10.090909, 5.318182)">
                        <g id="Group-3">
                            <g id="Group" transform="translate(0.307692, 0.000000)">
                                <path d="M1.92307692,-0.5 L14.6686452,-0.5 L22.3461538,7.1775086 L22.3461538,28.5384615 C22.3461538,29.3668887 21.674581,30.0384615 20.8461538,30.0384615 L1.92307692,30.0384615 C1.0946498,30.0384615 0.423076923,29.3668887 0.423076923,28.5384615 L0.423076923,1 C0.423076923,0.171572875 1.0946498,-0.5 1.92307692,-0.5 Z" id="Rectangle-11" stroke="#CFD0D1" fill="#FFFFFF" stroke-linecap="round" stroke-linejoin="round"></path>
                                <polygon id="schatten" fill="#CFD0D1" points="16.9230769 7.38461538 21.8461538 7.38461538 21.8461538 12.3076923"></polygon>
                                <path d="M14.4615385,-9.09494702e-13 L21.8461538,7.38461538 L15.4615385,7.38461538 C14.9092537,7.38461538 14.4615385,6.93690013 14.4615385,6.38461538 L14.4615385,-9.09494702e-13 Z" id="ecke" fill="#E5E5E5"></path>
                            </g>
                        </g>
                    </g>
                    <g id="Group-3" transform="translate(0.000000, 10.500000)">
                        <g id="Group" transform="translate(2.812500, 0.000000)">
                            <path d="M1.9375,-0.5 L14.8946068,-0.5 L22.6875,7.29289322 L22.6875,29 C22.6875,29.8284271 22.0159271,30.5 21.1875,30.5 L1.9375,30.5 C1.10907288,30.5 0.4375,29.8284271 0.4375,29 L0.4375,1 C0.4375,0.171572875 1.10907288,-0.5 1.9375,-0.5 Z" id="Rectangle-11" stroke="#CFD0D1" fill="#FFFFFF" stroke-linecap="round" stroke-linejoin="round"></path>
                            <polygon id="schatten" fill="#CFD0D1" points="17.1875 7.5 22.1875 7.5 22.1875 12.5"></polygon>
                            <path d="M14.6875,-9.09494702e-13 L22.1875,7.5 L15.6875,7.5 C15.1352153,7.5 14.6875,7.05228475 14.6875,6.5 L14.6875,-9.09494702e-13 Z" id="ecke" fill="#E5E5E5"></path>
                        </g>
                        <g id="TAG" transform="translate(0.000000, 11.250000)">
                            <path d="M1,0 L20.25,0 C20.8022847,-1.01453063e-16 21.25,0.44771525 21.25,1 L21.25,10.25 C21.25,10.8022847 20.8022847,11.25 20.25,11.25 L1,11.25 C0.44771525,11.25 6.76353751e-17,10.8022847 0,10.25 L0,1 C-6.76353751e-17,0.44771525 0.44771525,1.01453063e-16 1,0 Z" id="Rectangle-5" fill="#E1131B"></path>
                            <path d="M4.12308324,6.42239412 L4.12308324,8.62666575 L3.125,8.62666575 L3.125,2.8125 L5.46207558,2.8125 C6.12199125,2.8125 6.63882617,2.97821804 7.01259584,3.30965909 C7.38636551,3.64110014 7.57324754,4.07702511 7.57324754,4.61744706 C7.57324754,5.16319337 7.38636551,5.6004494 7.01259584,5.92922828 C6.63882617,6.25800715 6.12199125,6.42239412 5.46207558,6.42239412 L4.12308324,6.42239412 Z M4.12308324,5.64371121 L5.46207558,5.64371121 C5.83173788,5.64371121 6.10966501,5.54787427 6.29586528,5.35619752 C6.48206555,5.16452076 6.57516429,4.92093521 6.57516429,4.62543355 C6.57516429,4.32993189 6.48206555,4.0836842 6.29586528,3.8866831 C6.10966501,3.68968199 5.83173788,3.59118291 5.46207558,3.59118291 L4.12308324,3.59118291 L4.12308324,5.64371121 Z M8.55900876,8.62666575 L8.55900876,2.8125 L10.4976725,2.8125 C11.2561648,2.8125 11.872944,3.04277487 12.3480285,3.50333151 C12.823113,3.96388815 13.0606517,4.55621367 13.0606517,5.28032585 L13.0606517,6.16283315 C13.0606517,6.8896075 12.823113,7.48193303 12.3480285,7.93982749 C11.872944,8.39772196 11.2561648,8.62666575 10.4976725,8.62666575 L8.55900876,8.62666575 Z M9.557092,3.59118291 L9.557092,7.85197609 L10.4689211,7.85197609 C10.9645425,7.85197609 11.3540512,7.69490999 11.6374589,7.38077309 C11.9208667,7.06663619 12.0625685,6.66066027 12.0625685,6.16283315 L12.0625685,5.27233936 C12.0625685,4.77983659 11.9208667,4.37652281 11.6374589,4.06238591 C11.3540512,3.74824901 10.9645425,3.59118291 10.4689211,3.59118291 L9.557092,3.59118291 Z M17.7060515,6.14686017 L15.0855696,6.14686017 L15.0855696,8.62666575 L14.0874863,8.62666575 L14.0874863,2.8125 L18.125,2.8125 L18.125,3.59118291 L15.0855696,3.59118291 L15.0855696,5.36817725 L17.7060515,5.36817725 L17.7060515,6.14686017 Z" id="PDF" fill="#FFFFFF"></path>
                        </g>
                    </g>
                </g>
            </g>
        </g>
    </g>
</svg>