<?xml version="1.0" encoding="UTF-8"?>
<svg width="30px" height="36px" viewBox="0 0 30 36" version="1.1" xmlns="http://www.w3.org/2000/svg" xmlns:xlink="http://www.w3.org/1999/xlink">
    <!-- Generator: Sketch 56.3 (81716) - https://sketch.com -->
    <title>Ratsmitglieder/Schneider</title>
    <desc>Created with Sketch.</desc>
    <g id="Symbols" stroke="none" stroke-width="1" fill="none" fill-rule="evenodd">
        <g id="cells/dokumente/asset-headline-icon-icon_688" transform="translate(-9.000000, -10.000000)">
            <g id="assets/file" transform="translate(0.000000, 4.000000)">
                <rect id="Rectangle-27" x="0" y="0" width="48" height="48" rx="2"></rect>
                <g id="Group-3" stroke-width="1" fill-rule="evenodd" transform="translate(9.000000, 7.000000)">
                    <g id="Group" transform="translate(3.187500, 0.000000)">
                        <path d="M2.0625,-0.5 L16.8529401,-0.5 L25.6458333,8.29289322 L25.6458333,33 C25.6458333,33.8284271 24.9742605,34.5 24.1458333,34.5 L2.0625,34.5 C1.23407288,34.5 0.5625,33.8284271 0.5625,33 L0.5625,1 C0.5625,0.171572875 1.23407288,-0.5 2.0625,-0.5 Z" id="Rectangle-11" stroke="#CFD0D1" fill="#FFFFFF" stroke-linecap="round" stroke-linejoin="round"></path>
                        <polygon id="schatten" fill="#CFD0D1" points="19.4791667 8.5 25.1458333 8.5 25.1458333 14.1666667"></polygon>
                        <path d="M16.6458333,-9.09494702e-13 L25.1458333,8.5 L17.6458333,8.5 C17.0935486,8.5 16.6458333,8.05228475 16.6458333,7.5 L16.6458333,-9.09494702e-13 Z" id="ecke" fill="#E5E5E5"></path>
                    </g>
                    <g id="TAG" transform="translate(0.000000, 12.750000)">
                        <path d="M1,0 L23.0833333,0 C23.6356181,-2.06356265e-15 24.0833333,0.44771525 24.0833333,1 L24.0833333,11.75 C24.0833333,12.3022847 23.6356181,12.75 23.0833333,12.75 L1,12.75 C0.44771525,12.75 6.76353751e-17,12.3022847 0,11.75 L0,1 C-6.76353751e-17,0.44771525 0.44771525,1.01453063e-16 1,0 Z" id="Rectangle-5" fill="#E1131B"></path>
                        <path d="M4.67282767,7.27871334 L4.67282767,9.77688785 L3.54166667,9.77688785 L3.54166667,3.1875 L6.19035232,3.1875 C6.93825675,3.1875 7.52400299,3.37531378 7.94760862,3.75094697 C8.37121424,4.12658016 8.58301387,4.62062845 8.58301387,5.23310667 C8.58301387,5.85161915 8.37121424,6.34717599 7.94760862,6.71979205 C7.52400299,7.0924081 6.93825675,7.27871334 6.19035232,7.27871334 L4.67282767,7.27871334 Z M4.67282767,6.39620604 L6.19035232,6.39620604 C6.60930293,6.39620604 6.92428701,6.28759084 7.13531398,6.07035719 C7.34634096,5.85312353 7.45185287,5.57705991 7.45185287,5.24215803 C7.45185287,4.90725614 7.34634096,4.62817543 7.13531398,4.40490751 C6.92428701,4.18163959 6.60930293,4.0700073 6.19035232,4.0700073 L4.67282767,4.0700073 L4.67282767,6.39620604 Z M9.70020993,9.77688785 L9.70020993,3.1875 L11.8973622,3.1875 C12.7569868,3.1875 13.4560031,3.44847818 13.9944323,3.97044238 C14.5328614,4.49240657 14.8020719,5.16370883 14.8020719,5.9843693 L14.8020719,6.98454424 C14.8020719,7.80822184 14.5328614,8.4795241 13.9944323,8.99847116 C13.4560031,9.51741822 12.7569868,9.77688785 11.8973622,9.77688785 L9.70020993,9.77688785 Z M10.8313709,4.0700073 L10.8313709,8.89890623 L11.8647773,8.89890623 C12.4264815,8.89890623 12.8679246,8.72089799 13.1891201,8.36487617 C13.5103156,8.00885435 13.6709109,7.54874831 13.6709109,6.98454424 L13.6709109,5.97531794 C13.6709109,5.41714814 13.5103156,4.96005918 13.1891201,4.60403736 C12.8679246,4.24801554 12.4264815,4.0700073 11.8647773,4.0700073 L10.8313709,4.0700073 Z M20.0668583,6.96644152 L17.0969788,6.96644152 L17.0969788,9.77688785 L15.9658178,9.77688785 L15.9658178,3.1875 L20.5416667,3.1875 L20.5416667,4.0700073 L17.0969788,4.0700073 L17.0969788,6.08393422 L20.0668583,6.08393422 L20.0668583,6.96644152 Z" id="PDF" fill="#FFFFFF"></path>
                    </g>
                </g>
            </g>
        </g>
    </g>
</svg>