<svg width="48" height="48" viewBox="0 0 48 48" xmlns="http://www.w3.org/2000/svg" xmlns:xlink="http://www.w3.org/1999/xlink">
    <defs>
        <rect id="a" x="0" y="0" width="48" height="48" rx="24"/>
    </defs>
    <g fill="none" fill-rule="evenodd">
        <mask id="b" fill="#fff">
            <use xlink:href="#a"/>
        </mask>
        <use fill="#D0D0D2" xlink:href="#a"/>
        <path d="M45.8316 56.5266H2.1534c-1.3006 0-2.2848-1.0675-2.1371-2.3842 0 0-.8658-5.9517 10.0314-9.7826 0 0 6.7123-2.293 7.1523-4.36.44-2.0647.1105-4.281.1105-4.281s-2.056-1.6147-2.5335-5.6717c0 0-1.4117-.1877-1.9539-2.421-.5442-2.2354-.3962-3.4.5589-4.4132 0 0-5.6613-17.7554 10.574-17.8791 4.919-.0363 6.0575 2.2546 6.0575 2.2546C40.1101 10.18 34.603 23.2129 34.603 23.2129c.955 1.0131 1.101 2.1778.5589 4.4132-.5422 2.2333-1.9539 2.421-1.9539 2.421-.4775 4.057-2.5335 5.6717-2.5335 5.6717s-.3294 2.2163.1105 4.281c.44 2.067 7.1523 4.36 7.1523 4.36 10.8972 3.8309 10.0314 9.7826 10.0314 9.7826.2267 1.322-.8091 2.3842-2.1371 2.3842z" fill-opacity=".5502" fill="#6A6A6A" fill-rule="nonzero" mask="url(#b)"/>
    </g>
</svg>
